/* XPM */
static char *brick_wall_128[] = {
/* columns rows colors chars-per-pixel */
"128 128 85 1 ",
"  c #3F3936",
". c #453B35",
"X c #4C3E36",
"o c #433E3B",
"O c #4D3F38",
"+ c #46413D",
"@ c #4C433D",
"# c #54453D",
"$ c #58473E",
"% c #57483F",
"& c #59483F",
"* c #624C3E",
"= c #474240",
"- c #4B4642",
"; c #4E4945",
": c #4F4A48",
"> c #544740",
", c #544A44",
"< c #5C4C43",
"1 c #534D4A",
"2 c #594F49",
"3 c #5F5047",
"4 c #56514D",
"5 c #5C524C",
"6 c #575250",
"7 c #5B5552",
"8 c #5E5956",
"9 c #5F5A58",
"0 c #614F45",
"q c #625047",
"w c #6A5346",
"e c #64534A",
"r c #6A564C",
"t c #67584F",
"y c #6D594E",
"u c #715A4E",
"i c #795F4E",
"p c #625650",
"a c #645A53",
"s c #6D5B51",
"d c #635D5A",
"f c #6A5F58",
"g c #735D52",
"h c #785F53",
"j c #7B604F",
"k c #6F6057",
"l c #66615E",
"z c #6C625C",
"x c #766155",
"c c #796256",
"v c #73635B",
"b c #7C6559",
"n c #7F685B",
"m c #676360",
"M c #6B6562",
"N c #6E6966",
"B c #6F6B68",
"V c #726760",
"C c #726A65",
"Z c #796C64",
"A c #736D6A",
"S c #786F69",
"D c #7B7066",
"F c #76716E",
"G c #7B726D",
"H c #777270",
"J c #7C7571",
"K c #7F7874",
"L c #826655",
"P c #866856",
"I c #896A57",
"U c #80675A",
"Y c #826A5D",
"T c #896C5A",
"R c #856E61",
"E c #886F60",
"W c #867063",
"Q c #897164",
"! c #81756D",
"~ c #877A6E",
"^ c #807771",
"/ c #847A74",
"( c #897D76",
") c #8A7F78",
"_ c #8D827B",
/* pixels */
"4dMMmmMmllMMMMNMMldd7dd8lmzMMMmmmVMHAAAHAAAAAHHAAAVBdVMBAHHABdp66lUH!!AAHAHFAABNl5lNANNlll88llzBBFFFAAFFFFFHAFAMmdlmmmmmmNNMd71:",
"dlCSSGGGGSASASSSSMdMMfzCCS!^FGS!SQUK/K//(//(/(_(/HHJ^^^JJK^JHUlalm!JQ(^^^^^//^^FCzDGGGFvCCCzNSGGGJ~KKKKK(^/)KKGGKGGGSASJSSACMdd8",
"larq0wqwyeeyqeuyeq0qe000errrww0rurruuhhhhuruurhuuhhguhygrusUABMmlUgrww00000wr0<0q$00q00&&3&&&&qwjrretweyreggryyeeq2eqqerrarzVmMd",
"frrrr00eywrwuuugrq0wew00ruurrr0urwwwreeuru0reewuuuugghyusuuugMd6dr0rwrrw000rrry0w0022q&qqq333$33ewrewryyryyugssyrrreeerysggremNM",
"trqqrrrryyyyuuggurquurqy<wrurwerr000wrrrrwrrrrruyuyurruuuruusva6dewrrre000<e0rr5eeq000qqqee3q3&3qqqqewtwrrryryyyrerrqryryrggsfMM",
"ggrrqe0yssgggguggurrhyuq0r0wr0rwrr0we0wrr00urwuuhhuuhuyuurruhva6reewww$00eeqr0qerreeerrrqw3*q&qeeeerqteeeeryryrreqeetrstrrrrrpdf",
"xsggrurughghhbhuhuruuurreurqqqrrrr0*00rrrwwrwrruyuruurruurrugm6pdrrw00OO$$<qqqrryrsrrrr0ee*&3qqqeeqeeeeqrqwtrreyrqrqrrtrrrrqqe9f",
"gggurrrughbhghggguruuurrrrrwqeer0r0*0wruruu00er0ughuhgrrgrugga68ar0e*>$>#$0<qqeqyrryssryeq*&wttwqwqrtqqye02wererrreqrrrreeee2ppa",
"rrrrrrruuhchhhuyuuurugywrrurrewer0serrrrw*we00rryyrrureyyygug9p7aqwq<100$><q0errrysgggsrrerrrrse3eqqqrqqeqqqeeqerrw3ryyerrere5,q",
"qrwrqrrw0hchghuywrrwuuyu0urwreeererrrrrrwree0wr0euuruyuryuuyufd7pq00e0<<><r0rr0eqryggghsrr<errerxew<0q0rqq2qewqewtqLrqtwrq0<q585",
"g00rrwrwruhhguyuurrruwwqwrweerrrrgguhsusrrwerrrryerguuuyuyuuyf9ppq<q<<<<<<qrrrr0rryusuyur$*rrrrrrre<$<qqqqqqqqqqettjqeqee0qqqe8a",
"usrryrruurhchuyruuuruqq0ruewqquhrsUhhhhhuuurrurrurruuuyyrrrugs96p<<q<<<0<qqryreyyryrrrq0r0&0rqrrrew0&&<<00<qqeeqeywq<q3ee<qqrpds",
"rggwguuuurwuguguggyyuwwrrhr0rrruuhhuuhUuuwuwrreerrgsgyuyuuhgsd9650<q<<q000qqyrerrrerqrqrqq0qrrrrree&q3000$&&q&eqwsew&q3qeeqqqpdf",
"rr0qrerruuuuyuuuhhuyurrruw00euuguUUUUhhuuwuurrrrrughggurguggga67pq0<20r0<<0qrrergree0qqeq0q0rrrrtqq<qq0qwqeeeweryyteq03wprqqq58r",
"rrwgrurruuguurugUvhhrreuuwrqerugUUhUhhhhuwhhssgsuuhhghyruhguup66pq<0<<00<0<20rr0yeqq0qqqq0qqrrqreeqq200qqeeryryyxyyrw20erqqqq56a",
"r0qrruwgwwuruwuuhhhhguurueuerruuuUhhhhhuuwuUhhUhghhhhggyguggyp66p<<<0r0<000errrrrre*00q0qqewrqrgyewq00qqqqeerysskyxwrqq0eiqeqedy",
"rqqywryuwqyuuywxuhhxhuyyueuwuyyyuuhhuhguuwhuhhUUvUUUhhurhshur66660e5qqq0<0qrrq0qrr0<00000ereew0gree320020qerraggxyxryeqeewqqq57r",
"qqwryuyrw*wyyruuhUhhhgguryruuurrrurhhUUuuuuUhhhvUhUUhUhrghghr6-122qeqq<00teqerrqq0<><<00eerrr<0gseeq0<0<2qqqysgsuxxxgeqeeqqqq575",
"5yryrrywwytyxwkyhUhvhhhggUggguyrrssguUUurUhhhhUUuhUUUgUUUshre:--::eqrrsstytrsyrrreeeeqqssssyy0rsyyrtqertyyrygggxxxyxyyeeeeee54:,",
">25ttq55,,#22%#512pp5p52552:122@O:2005022>205e5765yp7657e66e:=--=>:2;111212772421>1,,,,122542,5e55,,,,,;;25tfssvkkkkygyetet55;--",
";;785444#.+=;-.;-::>=:----;-->==O=---:--=>11111111111:-1111:-6676::;--;;11111::-=------:::1::;11:1;;-;;--;18lMNCNNNMNDdd98894744",
"ldddlNNlllMlMMllMMMlmMMlmmmMM94=-:8mMMMlNMB!AAABABBMMMMAABBMmmmmNMBBNNNMNNBBNNNmMMMMMMMMNAAAAAlddlNNMMNNNNBFACzbkkasakt555plMll9",
"lt>>33tt7vACSFFv^!AAASAZBVVSAm976dlMM!!M!!!HH^!^!!^AAVV^HJJHAvMVAH^^^SFH^GGJJJ^SSSACVAAFSG^JGFAHANCFFGFJGGGZgyyyyyrwyrq52<<<kCCC",
"2<><&#@#@##3$&<q<>>$<$<>$>>>efddddde0>$><>>>2<><><<<<>>$<q00>O#><<qe05rqqrerqq000<>>><0<0eeesCGHAzee3qeqqyryuaysytt<eeeqq&<3,q<,",
"&<>&#X@#X#&0$&<<<<0O<<<><O><<2p66pe00<<<<0$<$<<$><0><0<$<$00<O>>$0ereersyye00e0$<<<<#<<<qqq000fJM3<qeetqyyryyayyyre<qeee3<<<qq33",
"<$>###$#@#&<<&<&$$$<O<0><>>$$<726500<<<><>>#$>#>#<0$>>#<<>>>$>#><eyyrtsssyy000<><<<<#><00q<0<<plaqqyrteeyttyyyyayre<3eeee<<<<q<<",
">q2##$#$#@<<e&<<>$$O<<<$$>>$<<21620<<<><<$<#$><#>><<>##>><0>>O$<2yeyyyssyuye00$$<<O<<O<<0qq<<<5dreteyrytyyeysyrrqq3<<3<3<3<<<<><",
"ee0$#>>><<&<3<&<>#<OO$<<$$><<>26670<<>><<<$<#>>>>0<>>><0><<>$<<0<eyskysyree0r0$><000<><<<<<><02aperyr02qw<eeyyrq33<<<&&<33203eee",
"00<&><qqe&><<q<>$#O#O,<$><><>$26650<<<$<>>$0<$<<2<0>0><>><<<<<<00yeguyyueryee0>$<0<ep<<qq<<><<pdaeeweq2qqqqqqrqq30<>$##<<<3qeeye",
"0q0<q2><<&&<<<&&<###O><O>$>$<>2665e<<<<<$<$<><<>0qq<0<<0<><<0000tstueeugyrye0e020qqreq<0<q>><<pdtq<&qq<q00qqqeqee2<<<,,<<<3rrtet",
"0202<<02<<$<<&$>$$@#O#$>>$<>$>,416<<<$<00>>$><<<<0eq2e0<0>>000<0eyyyssgsyyyye000peeep0<<<2<><<pd5ee<qqqq020q5qqteq<&$<<,$<qtteew",
"eeqe<<0<33><<<<>##O@#<O$>00$>>26150<<<<<><<><><<<0<qq0<0200>00eeeyyyuuusrryetttssreqq0<<<<<<00pd5qe&q<3<q02<<qeyrq2&<<<><3eeeeee",
"eq0qq<<<0e<&<<&<$###>>O$$$<>>#>612<><<<<>><>$$<<<<<$0e>00<<<0<00prusyggsyytrqrsrysr52<<q<<qqqetlt3&00200<000qqryq<<<<<<<$<e3ereq",
"e02qq<200q><3<3q<><>>$>>>>><<>2116<<><<$$><$<>>0e0><00<<<<0<<<<0qryssgsrrsyrrryysyyrqq5qqqe2ee5dp3q<0$<<<0q0eeeyrq2<<>qq5eerreee",
"e00<<<q2><&<<333<00><<<<<>$><<1::2<0<0*>>O0<0><<<0<e0<e<<<<0<<00qyssrggyrrrrrryrysrryr5q&qqq<eadt>>q<><<<2q0eeqyeq<<0qeq2eerreee",
"ee>$&&<&<<<&#3<*0<0e0<><<<<<$$1::2<0<><<$$><<<$><<><e<000020<0<<00ryysytsrrrpryysryyrsreeq&&00p82#2&<<>$>qq&q3qeq<<<2qqqwererete",
"e<<<<><03$<<&qqqq<qre00<<>>$>$1::10>000>>>>>>$>0<<><000000ee<<<00qeqeryrsrrprrryyrsrtyssyq0<02585<%$<<qqaeq&q<<qq<<<3qqetreyytyq",
"q<00<02&33<&&q3qq>q0ee02<$>>><>:-1>0$>0>e>0>>0O0<<0000eq0e00<><<<<<000reysyysrpyrssryyryayq0q0855<3>><5reew2qe<<q<<33qarreyreeqq",
"0202020qq5<&<&3qe0000e00<>$<$>---:><$>$><00020<<2020000q00e00<><>0e<0000qrysryrgrsyrryyryq<q251455$#<><qeeq<qq<>232<3qqt5eetrere",
"rqerqeeeqq3<33<30e00eee2e5r<>>-=o->>>ee2002ee0ee0eee0eeepee<0>>$#<>><<200q0ysysysrsgryyysuaq24;-2,<$e5rrteetyae5qqreagyryetraree",
"212,2,,2,,;;,;,,::>::>1>->>>--oooo-->->-:>>1:>1>:>2::>2:222>20>><O>O#<<q0qqqryugysystrytt5851---=;;,,,1,,4,422-;;25t585555454554",
":;:::::;;:;--;--:==-=>>======-1161-=--=-:--=---:-:---::>::>=::>:2p272p757pppsffffsgffff7444474644:--;:;;::;;;;;=;:44446641411,4;",
"lmNBBBNBNNNMMMMMmmmmMmMlmMmmMlmdll9MMMmmNmMNmmMNmMBMMB!ABABM6==:7872788a68NddlMMNNNCCCAHFHJFBANMMlMmNNNNMMMMNNNNMNNAFFHKJFFANd99",
"AG//(^^KKGG~GGGCHU!!A!HMAAB!!H^VAA!A!!!^^!HA!!A^A!!!J^JJ//J!M6168722,27dFANfp5sffsfffVS//(KGCGCAFCAFFFGGAFCCCGFGGGGFGG//K^KFFNFN",
"Cbxggsgggsgyrye&000000w0<e000erurererrrre000000000wreyuuuhv^Bl96p<<0<2<,qpeq<qrrryyysyyyyystrr333$,<<3,><<$##533qq><<3eyeyfaCCHF",
"ygxghghgggggyyu&rr00rerr0qeewrrrre0rrwww0qq0000e00r0eyhuurrsUBMd,q2qeeq002<0qqeprtyfsttsyaytreeq53333<<3<333<<q5q33<0qertteeqkll",
"eggggxggusyusxxwrrrr0re0000rrrrruwee0000000000>0000eeerrrrruuVHmeq<pre<,0q<q<qerrtygyryyyytrteq5<333<<<33<<<3eeeq35q20eeeet33tlt",
"qsgxhxhggusuyyxyrrr0rrr00r0rrrrrr0e0<<<000000000$<000wr0eeyyrfNstteeteqqq2q2q<0epryyfyyterrtetq533&<<3<e5<3<3etreqq<5qqtyerq<t85",
"eryxxggguusuuuuyrr0rrwq0qr0rrrrw0000$00$000000<00<e0ewrrw0rruvmerteeyreqe20<qq<eqeyssyyrrerrteqe33<&<<3<<<q35trtre52<20ereqq3p85",
"rrrhxhuysyrghguy000rwqwer0qerwU000<00>00e00000<<00$00ererrrugg7prerrtreqqee2q2<q20qyyeert<5<eeee3<3553<<<2q3qryrtqq<2>qqeqqq3595",
"eqerhgyguguusuyq000q000ee000w000000u00000000000<<$0<0rereerrug9frrrtrppqq5eqq2ept5qq33qq0><2eq5eq533<333&&<q>eeqee3&<<qqrqqq3885",
"rrryrusgusguuueq0e0qqe<eeqq0e00w0*000000r000000><<<0eerre0rrramsptrsryee0qeqerrrqqq3<35eq>##<3<32qeq<&&#&#<e2<ee<eq><<<q5e5<3574",
"rererrggusuurewqqeqq00we000qeee00000000e0e000<<0<>$<0wer0rrsesdyrrystree0qpqeeqerqq33<<2q<##><<<<3<23%@&<<$<<00qe3<<#<20&3&%#541",
"aryrrerrugserrqqew$w0eerrerqe0**00<*$00000*00000e<<>0rersere0sd6prtssrr5qqe<eerpq2qqq&#>22<#>3<$&q>q,#$&>$@<<<3qe<<<,<<<32&%#547",
"sarygghyyyyrrwrqqqq<0eerwrreer000e0e00000000<00*000e000ereerrp9syyrsytyre<qqrpeeqq<3q<#$02##<<<<<<0<3$$,&,<<52<q3>$#<322&%###5ll",
"yugggygryygyw0qq0<<qwerrwereeee00e000*$00*w0$<$<0$<00euuyr0eer9arrrrtyrrreqqqeq<0233q<$<&&>&,2<<3eqq<3#$3$><<<<33<,>,3q<%##@#,ll",
"ryyyuugyyyuy0gsye000qrwwrere0000000000$*00$00*#$$$$<00rrr0rreplartyqrteytpq<2<<<333333><<<,<,&<&qeee3<5$%,<<%<<q3;%%%&%%%###@,8a",
"ryyyuugyyyyr0rwrrrqqqrrqeew0000<0*000>0000*000$00O$$$$0rrrrryfmsttyqyyeyye<<<><><33qq<<&,$q<<332tse53<<<3%<33<<<<%%%%%3&2@##@@75",
"qwyugxgsgyyr0rrrrqqwqqrqwyeere$00000<0<<$00000<0000$0rsurrrrgfdfrryreteereq<#>#<<333<<,><<<<3<33teeeq33<3<5&,<<5&%%%%%@&#2@#%,4e",
"wyyyugggyuyrr0rqerqqrqrryweryr0000000<0>>#$>><<e0r00eesuurrrgsdarttrryteq00<#@##<3<<<<2<,<2>3qe5teert35<%3%23<<3<22%1%5%%%##%,4t",
"wwyxyyygguyeeeerwwq0rerryeeewee0000>0<>00#e>0ee0rreeeyuuyrrsga765rrrerte333##@##<<<5<,<53<33qeeeeeyeeqq<3&33&&233&3&&&%%%%%%%214",
"5<rxygsgusgrrtrerererrruyyeuyw00000eeee0000000eerrrsryugsurrp766855tttrqq35&$,<35eeeteteteteteetttretatre532553t5tt7apap%51114;4",
",@55555t52522,,@:>>;:<12221111>oO=>==O>=O>===>=><20011667<622162;555455221;@+@+@-1,1,,,4,445544545545424,1;;,,;,11,,1@++%+:%%;%;",
",:4:1,4,,11;-==+=-==---::-=---=  ooo=o===oooooo===:=-=>:::::66d98841,44:1;-+  +++:::::;;:1144441441::1:;;;;-+;;;;--;@@+ +++;6776",
"VAAAAAAAAABAMmdmmmldMmVBAMMmMd1=+=6ddddldda88addlMmmmMABBBBBMNFAAAAFAAHBAMMmd9ddmFNNNNNMAAAFFBMdlNABBBAANNMMMMMMMmMMNMmmMmlMBmmN",
"/(/(//)Q/(//SHHR!A^!!!^^/^^^^Ad646adMMVZCNMMNNCCCCCCCGGGGGGKGGAGKKGK^GKSJGSCACzCCCGGGGGDKKK(/KHHFJ^^/^^/G~^DGFG!^^^JDDGJ~DD~__~_",
"RUUUUUUUhUUhhuwrrrrwyhhguuuhUAzd77a2<>$O>>O<><<#><$<2qeeqqrqetsssrrrrer0q2<<<$<$3qqqeeeeyyyxv~GJAGDnnbbbgggyystsggssytysssgcnExn",
"UUUhhUUhhhhhhuuruuuuhyhuuuygggz766<<><><<O#<<<$#$>&2qqeqqqeeqqrrrrrrrer00e0033rqqwttssksxsyyyxClMnbcbbYRnbxggxgjxxcxsgxxsgcnEEnn",
"UUUUhUUhUhhUhuu0ruuuuuuuguuuhgf66p<2<>>O##<<####<$>0eqq02qrrerrrrrrrereeqwqq<qeqtyyyukxusssssgzldvbcbcRnnncxxuggxxxxggxjtbcbnTEn",
"UUUUUhUhhUhhhwuwwrhuuughuyuugrt615qe<<>$>>$<##OO##$<qqqq0qq0reryrareeerrteq&3we3tyyxxuuysggssgvl8vnbbnnnnnbxgxxxjxvjxgxxxxccbnRT",
"UUUUUhUUUUUhhhurrruryuuhyuuuyep116000<>#<#$$###>##$<rqqe&0eweeyygsyererryr<qqqqequxykyxygywsggzl8vUUYWRnnRnxxxxxxgckbxxxccccjPRn",
"UUUUUhhhUUhhuuhrurUuuuurruuuurp1-20<q0<<<<<OXOO##$#$eq0w&2qqrryggyyrerrryyqeqqqqqyykuyyyyyqyyszldzUbYYQRnRnxbnxxgsjxxcnbbbbcunnY",
"RUUUUhhhhuhhuuuhhuhuurrrruuuur71:6<$0000<<$#O>O<>###0e00<q<weysssgarrrrtyyyyeereewtrrrtujetetuzldzYbYRRPnnncxcggxsggxcnbbbbbjbnn",
"URUUUhhUhhhuhuhhuUUuuqqurruguup112><00<<<####><>>OX<<000<30<qyyyrgrrrrrryyayyeqqetewrrruuewwwtzldvYbPbYbbncccxxuxxuxxcbbbbbbjbYn",
"UUhUUhhuuuuhhhhuUhhruuruyruuurp1160<00000$###<$<&##&00e0$3qqeeyyrrrerrrrryyyrtretrtrteryrtyyetk8lvYccxxxxxbcuuxxxgsxxxcxgxxxujjY",
"UhhhyuuuuuhhhhhhUuuuheuuruyyur5112000<<$0<>0><<<$#>00<0<<qqeyyyyrrretrrryyyyyxgkurssyrret*ttrel98vxhuxxxxxxxxxcxxxxuxbkxuguxuujn",
"hhhguurhuuhhhhhhUhhhsuruuyuuur71:2$<$$$>$$q0<<<0&@#<0$0$qqyeyyytyrrrerryyyyyryyyutuuur*tteyrytt88zgggsjxuxcxccbnxxxxxbxxuxxxrjrj",
"gghguyrrwuhUUghhhshruuuuuuyuuu61:2>$000<#<<20<<<&#&0<0q0tytryyyysrrrrrrryyyrauyytyuuggrteeerytk88agcggxbkxcnncYYnncgxxxkuxcusyyr",
"yuhyuyuyruhUsuuhsuhgussuuuuuurq1:1<<000<0<<00<<&><<002eyrryyyyyysrrtrrrryysryuyrrrsgsgsteqeytylldzncxuxjxcnRDnnnbbbxxxkbcbxjkuuu",
"gyguuhuyrhuuuushghuuUshhhughur61:2$0><0<<<q<$0<<<<<<0eeyxyytyytyrsrrreersyyyreryxrsuuts**qeetsvzlCYcxcxbxYnnnbnccxbxcxbbxcxexuxu",
"uyguughsguyuuuuugsguuughghuggut412<<0<000000<<>#%%%33twtjxutysryygrrerrsxyyyyyrryxuyysyq&t&3tuzllCnRbccbnnnnbbbxxvccbcbcjnbjxxxj",
"hhggghhhuuuurhuhhvUhvhhhguruugr::1<<00000000<###@%&33*ttugugsuuurssrrrygyuyyyyryyykyrxsw3*&etslllznEnnbnbnnPPcbLjbxxbbbvvbccbbcv",
"vhhghrhhuyuuhhuhhhhhUhRhvghggtq112<00<0<00000OO#%%&733tsuxtxyxuyghgurrssykyyyyryyssyyyye5t333al87lkcnDbnnnnnExcbjcxjbbbcccbbbbcc",
"gvUhggggyuyughuhhbhhhRhURhgrppp414,0$><$$00$<O>>%@%%@,2377tuukxxggsgsqttt7t858t8pa7t7452%;@,4a,5427atkkxbnnnbbvcxcxxbbbbbnnnbccx",
"60e6ppsssrp7ppsvssssgsssaa4116666122222<22e2<2>-++++-::1127zzkk8aazszf82445666547774,4:;+@;;47dlll852446kkvvxkvkkkkkkvvvnVvvvkkt",
":===168978799ddlddd89887dlMMmMMMld8767771798641689llMNCNBAFBNM9148mMCCHAHHJHJHJFJJFFFAAlBMNBFFKKFFFFFFABlllldllldl8dlllllzldl876",
"69dmma807<07ppappp0062,2qaNCVNCCMl02>2,2,<22<>>1klCNCFGGGGDvNNzldlZRRZG________________JJ~G____________/Dzckkkkkkksfkvvvvkkffkll",
"Bmdme><0>><<000e00,$>0<$>000<<<>#>2$<>0<0<<q<<##@&##<&<<3e3tuvzllzCbhgghnnYYYYYYRWYnbnxxxxcxnDWWnRbbncnncccuxxbbnxxxnbnbxxxgxgkk",
"mf7><>>><0<O$>$<00$$$><<<<00<<<$>#<<<<<<<0q<<2<#>##&&<3q00eersMpdMbcxxgxcYYYYYYRRRYnnYbcxcxccbbccvbcbvYbxxcxxxxbbcccbnbcxxuxuxxk",
"d6><><><<>>00<$$$$#>><#<<<0<<<>#><><<<<$<0ryeq2#####><q<0eertefddzncxxxxcYYYYRYYnRYYbccxcxcbcxbcxxcbccbxjxxkyxcbnUDRRnnbxxxxuxga",
"7><<0r0<<<><<<><><<>0<,<<0q00<$$<<<<0<<<<0errre<,<><<<0305errefd9vxbcvcxbYRYYYYYYYYYccbcccvbxuxyyjxbxxxxxxxrxxxbRRRRRRRnbvjsuuxa",
"9000e000><0<$>$<<<$<0<0<<0q0<0<0<<q<0<<<0<qreeerq<<O&<<qqeree0d78lcxxcbbYYRRYYYRbnnnbcbbbccccuxyyyyuyyjyxuyxxbbnYYYnREEnnbgsttja",
"90>00e02><00><><$<O00000<q00q00q<0<<<<0000rreereeeqq<<<<0qeeeed78zcxxxcnYYYYYYYbbbbbxbnYnbxxxxxywxjyxbcxuxxxxnYYYYYYREYEnnxuyyrt",
"76>00000000000$<<<q000<0e00000qq<<$<<0<00002reerrrq2<<<<00eq00pd7zxxxncYYYYnYRbcbnbcxxbbcxcxuuyyetuxxbncxxxxbbYUYYnYYYEYnnxuyyyt",
"920000000<0000<>><<<<00<002<0000<<><<0qqeqqqqeretreeq<000<0eqrad9zxbbnnYYnYYYnbxcxxxxxxxbxkxkkyerucxbbcccxucnbbYnYnYREnnccjttwyt",
"76<0sree0<<0e0>$<<<><0<<<<<>O<<0>$$<&2&0q00rqq0qqqqq2q2qqeeesuMfdzbnbYYYYYYnbcxxxuxyxxjxxcxuxuyrrrukxccxxuxubbcbnnnYRRPcbcjyyyut",
"9<>00eee00<$<000<0><<0<<<$$>><$<<><$$$><<<0qq00000000e000qesrszldvcbUYQYnnbjxxxxgyyyghxcxxxgxgggxuuuukxguxuuxbcnnnnYEnnnccueutut",
"70e>00e00<><000<><<<<$<$<O0$OOO$<$>>><<<<<qqrp0<e0<2e00<eeprryzddvbnYEQYYnxxxxxysggggxxgxxccgxyskgutgxucxyyuxcbbnYnYEYnbcjjytjjt",
"90000<000<<<<00<<<<$0<0>$$>$OO$$>$$>$$<><2qwere<ee<00e00eerrqeld9NncYYQYnbxxxxxyyuxghgcxxxxxxgguuuxsuxxxxyyuuxixxxxcccxcxjtyuuuk",
"7620>000<<<<<<0<<<$><<<>O>>O0 OO#O#>$<<<<00000eee0<000<eqqqerefl9CbbcbYYYYxxxxyyyggxgxgyxhxgxcxyxxxxxxxxxxxyuccxxcxcxxjyuyuuguut",
"7000e000<<$>><00$O<$><<OO$>O><OOO>><<<<>><0000yeree20e0e0erreqfd9zbbxcbWQYbccxxkxsxxhxxxxcxhxxugxcxxxxxxxyxuxccccxxxxxuxjyyuuxxt",
"9>0000000<<$$>>>>0>$<<<O>O>>OO>>##$<2$<<<<<000yeyeeyeee0qqetrefd9vvbncxPYbbccyyyxxccxxgcbcxxxxxxxcxxxujxxxxxxcbbxxyxxuuyywyuuuxt",
"720e0000<<<<<<<>0<>00>$>O>>$><O>O><00<<<$<2<0eyreeeeestryreretfd9vnbUcxbcnbcxxusxccccbcbYcxxgxgyccxguursxykyxcccxxxxyyywywrjtjxt",
"6220000>>$$<><0ee>>>00>>>$$<>>OO##<<<<<<00000w0ee0eeyureeeerrtpd9znYYbcxbncxxysyxcbcbbbbUbcxgxxgxcxxsuwtyrxxxyxuxcugxyywyyurjuj7",
"->>20020<e20600e<2><0apr00e60<2<<e2ee00ee0eeyereeeeeeyeer0ree6p79lkbnnbccbRxhgggkcbbcnnbUbcxcchbcbcbcxkykxxxbcccxxvvbkxkjygyytp1",
":=:>1>--=OO->->>>oo>:>>::>->>=o==@;,1;1>112262212--6066244422616417alttapd85aakfapapkkvvvvgffad577557412225558855p5554%,,%455&%@",
"66:::-===o====:Ooooo------====ooo+=-;;;;-:12::11::-:1::1:11116ddl974664466246d8l6,:68llMCmdmd7611:1;---++;1;:,4:11::@;+++++@:447",
"ABmBBMmld99dddm9-==-6lMMmmmmddd69dmmMMNMMBBMABAm7268mMBABAFFHNFHJFFFJJHHJHHAAANzl989fzzvVSSAKKJHABMMNMMMMMBBBNNCl98lMlllllMNBMMB",
"H^HHHSAVBmVVBANd66169MVVVMVVBVMMVASHH^^^^^^HH^^AMddmBS^//()^///KJ_____KK/(((!vgCMdddkygxgggbR/))KJDGGGDFFG!GK~JFAAMmCCCCMNNJHGGF",
"e00000$$>OOO<>099867pe<#O>0<>0<<<000qetyuuuryyvAVBMBSYvhggghggsgxxxxyuryysxgccxxVldzsggxxcxvcbxgr33e353&33ettqkCABMztt3&%#%*t3tt",
"0000r00<<>>$$>$061160>$00>0r0000qqrrrrryuuruyrykVmlVvgggsgggggsguuxryyryggggggggVddzggysgxxxvbggteeee3&3eertttwekl8t&&e3*3%&*e*t",
"e00e000<0>><$>><01:1>OO>0<0000<0qqqeruyyyyryygsgzldzggvgsggvvgsuuyrrwyryrgrssggsfddfsyrggsvxbccsutewqeeqqqyrrrtytdtt3t&&33t33et*",
"00e0000><><$<>$$2-:>#<$><<0<000000qrrruruuuryyuglddlgghggggxxxssyreyejeeywuusyyrf8dfrgrruyscbcxsgeeeeeteeerrrrrstlaeqeew333q&&wq",
"0000000><<*<$>><1:-6><000<<<$00000qrrrrrrrrryysszddfgxhgsgxxxxxsteewyreqeeyrytyrad8aqerrursrcxvgyrtrrrrteeygsrgralte33eeq&q3<3qe",
"000<<<<0e00>$>><1>66<<<0<*><<0000000rrruruyreyeufddffcxvgxxxxxnsyuyjyretrrxryytwfmdfer<qrgygxcxxytrerresrergsggfalt3q3eeeq33&q3q",
"0000000r00<$<><$6:6p0<<>$><0$$<00qewerrrrruruyugzd9fgxxxvggxxxxcxryxjresyruryuytfAMfe<qrrrrggxcggrrrrtrrrtfxgcggaltt33e3q3qqq2qe",
">e0e0000<$<>>>0<016p000e<*<<><*0000eryueruuerussfddfxbxxgggxxgxxukxjjuuryysykyyrsCdq3qqqersggggcgrreesryrsggxxxxxzkeee*3q2q0&<qq",
"00<00*00<>$<<>><0667000<00<<<<<00e0eqeurryurryusvddfxxcxgggxgxyxxxxbjjurysxxckyyadfqqqqqe0qrsryygfrrrrssssggxxxvzNzsqtqqyqe5<<ee",
"e0e0<<000><$<0<0796p00<00<0><$0000ereerururryrugzddMxxxvggsxxgxcbnbbYLbcbccxxxsyrdprrqeeeereeqeersgrrrrtfgggxxxxvAvctrtqeryqqeee",
"000<<$<<00$000>09p6pe<00<00>$><<qqeeeuyuuruyuyruvddzxgggxsggscgxxxcbIIcxcxxxxxyyadaqey3trersg0ryrrggyrgggggggxggvAzxuretqeqqq0qe",
"000e><<0er0eer0ea666<0<0<><$$$<<0qweeuuyuyyygrrszd9fggvgxkuxyxxsxxxbIIjjxcxxgsyrt9ttwtwywtetqertrrysysggsxggxxggvCvyyrttrerqq000",
"000<<<00yypgpreea66200$><$<O#<$000eeyyyyyruyrrgrf9dzhxggyuxyyyyxxxhLIIcbxxgxxssrt77qtweweeweewetsgggxxgggxxgxsghvNayrrqweeqq0$2q",
"0ee2<<0ergsrsruyp2620<>>#$$O$0<000qwgyyuyyrugrrgfd8fggsgyxkuxxyxxcbPPILbxxgxggyy7lewsyyt33&&3eussgggggggsxxyxxgasmayyereqq32<qq0",
"e0ee<er0russrrsr661<<$$$OO><<<00q00eryuyyyyryugsdd7fvgggyxyuuxxxxcbIIILxsxgxgussk9tttete3*&&euruscshhfggxggxxggsflayeeeesy0&0rqq",
"0e0000eerrrrrrre661:<<>>O<><00reee0eyygyyyyysgrsd77dfgggukxkkxncbxUIPPjxggxxsysr78atyet33*%%3qrraxsxggggsggsgxssa85eqeeqete>0eeq",
"ee0eereerryrre022-->-><y<>eres0ryrqyyyyurryyyrrp81,8etgfyxuuykuxccIIPLxxgsxxgsat5455etetq3333qe30xgggvvsyggxxxy584555eteyyeree<q",
":::>>1>11606101:===o==>>==>->:>:2<,225p552252872,1;-21>255755t2,7tskskt88pp55855;1,1534,%@+@+,,,<58558ap58td5p54:;;;:,,1,,,1,,#@",
"=:-:--:-=--:--:1261:==ooo=-=----;;-:1111111112778d82:1-11451442111555t542454412444644;1;++oo+--;,425666244476414644,;;---;;;:;;="
};
