/* XPM */
static char *dark_wood_128[] = {
/* columns rows colors chars-per-pixel */
"128 128 43 1 ",
"  c #050500",
". c #0C0C02",
"X c #100F05",
"o c #121106",
"O c #15140B",
"+ c #18170D",
"@ c #19190E",
"# c #181610",
"$ c #1D1C13",
"% c #201F15",
"& c #201F18",
"* c #212116",
"= c #25241B",
"- c #28271E",
"; c #29291D",
": c #282720",
"> c #2D2C22",
", c #302F26",
"< c #302F29",
"1 c #323126",
"2 c #35342A",
"3 c #38372E",
"4 c #3A392E",
"5 c #373630",
"6 c #383731",
"7 c #3D3C32",
"8 c #3F3E38",
"9 c #413D32",
"0 c #3F4030",
"q c #424136",
"w c #45443A",
"e c #49463C",
"r c #4A493E",
"t c #4C4B42",
"y c #504F45",
"u c #515046",
"i c #54534A",
"p c #58574D",
"a c #5A594E",
"s c #5D5C52",
"d c #605F55",
"f c #636156",
"g c #65645A",
/* pixels */
"4q;;;e*O;44;@;101*@;*$>05<&=*@5>52<><o&&@>w=:<-O=-@@@X$5,@&X<>&@:<057:4:-0&$:-->:2993%<&9=%:>#>=<>+#s>25&0+7==&->2o@2>$&:$:&*.>:",
"44**@4OO@4*q@*e;;@o;5>>002&<&+52y0625O@@&>7&@<> $>o&&@>&>2@O<>O:>:4>56>>:0>>&>$7&2>79:3&<6=,><:$=3O$8**>&6$5>#<7>5OO:5$&5>:#*o>,",
"11$$@1O*@1@0*@q1;1;$=>>&6=o:=O7058tut&&=>=>$=:&O&@&&o#0>.:X@:<@;>=226<2>=>::@>$5,:2%t&%:=:&9<*==$<$#q:2<>r<0:&&01>$O:=5$*<>=$+=<",
"11+@*4@1;@$;;@;r0;+o5&-8t:#<:O8t26606OO@2&-$+>>.X&O-oO&&o>&O$,<&=&0y50>56>:&>&&:&,9>t&%>===#$2=$+$1#i*w$:7>05+&52:&o$>2$-0>$$*&2",
"00@1;*@@==@1;.0220&=:&8>8>O>:$56&<51<$XO==&=-&>o@=$:oO=X+, @=>=&:$<y<6:61;&->=><%,3%9%*9&9:$6>*+O3$$5:><=2=2;O@*2:+O=<5>>=:$&--5",
"@;@;*;1;>@==;=i51*-&O-t17=#O=:=7507<<$XO>>>>;=>OO&@=..-&2=@=><<*6=:6=<0<:>O:<1&>%&9%99*>O7&:>,&=$<&*12<:wwo1*.$422:#X$$$>--&#&>0",
"*;**;1;14$*$->t70>O&>;<157$->$->O>55>$XO&&&&-&>OX$O&OX-:$,O+2>5&<&<020<&@5&$>&<1&,>>%9=;+<$=>=>*::==73=51;@>OO;00>$$O>$=:>&&:>=2",
"141@1;**2>o$=@<00&>>@<52=:=:=>O:>56<<$OO::-:--:oX@O$-o=&5===;&<+>$>t0=5:>$@-<>=>&&<&39*o*=*$>>=&:>==475>>q*2>O=q<>$OX<+::2$&#&>0",
"q1****1*@1;$6X:0-:>>$$2w7*&:$=O$>>15<>+>-oO$=::O+#$=XX:::,&+2&<=<==t<>:7>@1@&==>;%1;1u;o9=9>-=-O1*$&72,42*;;1o;;>4$$+#&&>==5O-->",
"00*@1;;o@0;$8 5675<>$2<5>=#5-2O=><0t>>O=O<<>=:-+OO$$$X:$:=&$@&::>:+t5=>>5>&&@<@>;*1=;u1*%%>>%%-%*===5==1;0>,1@0002=*O#$&>=:<.550",
"1q;@1;;o@2;*<$:8*=><&:0<0$=&=:.o>>:::=X&-t>&=>=+XX$O@=O===&&=>=O&5=<0<->$0<>**;;1>91;e4;%+9%#=--5&O&i2;;;0*q1@;;0>;$@@$&::>>o=t2",
"q4$$*=1$@2;*<#8<2<>>$=>r2=$<2&&.:<70=&.$O8&>=>-+XO#@@&:2@:=@=:0&>=:>rt*8575-$;$>;;9;411%-*9-$-%%-&&=0;@2;4;1;@;1>*1&#@$&=>>>.:8&",
"q;;*;1*@;*5<>X&5::2&$#27>X756>$#-0<5&&&1&1-5&>:$@O$$.=:=&2@*=@2>>:&<g5>1&r20$1*;==93%99;*;9>%%%,-=O>8=@1;q*1;@;0=1;o+O$O>#::.>08",
"01;*@;@o@O:&5$<8<=><+>,5>X*50>: =658&=$5O*$-+=:&@X=&#$<=<o>&>=@o-O-*tw5>>>-u*;1*==31>;9=+%>*%>-%-+-15>$,q4*1;@*;201$+O$O&-<$$><=",
"011@;4**@O:=5$<8>:&<$<>,-$--<<=.$560&-$2&&>>.$-&X&O&X=&:*=<+:::>&>$&>t7>2>;10;@===911>p*%>9->==%0:==8<*,44;0;@*;041;@O$O--&=O&<2",
"141@*1@@;&2<<X:5&5:>>*>,8+<>$8&$+50r*=$2O.=$ +==O$#&X$:$>@>&=+,&->1=&w752&;1*O11*=199*91@1>>-%-%6<$<02$>1a1;1@;141;=@O@++5>$$=50",
"2r2O:$&=&$$><=$@<>><$&=>>$1-O6&.$<>5<:@2: :$&@=.#OO+o&:@#:&>0&$2>57>o>0:963>>&=1*@391>e=+;%;*---1;*$u;11;4*w;;$00<+-@O@OO*>.o>y5",
"120@2>=&=&=>>&&0w:>0-><<>&>=&1=O:t0>=&@=:X&&OO:@+++#X-&&&$>==:>5>&r&o$t0,>:>;-*;;;*13;9=%*;;%%%-1;;$0;01;0*04**w2=2<#+$#o:$O&*60",
";21*=<&>-=::0:@6><<<O@&->&1=>>>&=25t>>5>=O@=X+>@O#+Oo-=:*$>:>><>&>>=<$80-:>,,>%*;>%19*p;**-,--%31>=@w@;2;w*1$@;*2<0<++@+O=O$:O>5",
">><@:=>+===&5>@<:O#:&=><>&<=7=5&$5<:&&2@-OO=&$=.O++Oo#>:@-$>&=<0=&5@<#6i>279>,;%**>>3>f1=;%9**+11;=@q;;*;r*;;@;>8t2>+$#+&O&*=#::",
"22>@-+>&>:-&>>@==<5>---->#6X.=7$=&<<0@2>:oX :@&OO@OOoO15&>>&&->2$>>$<0#59,,2****%*;99*1>*-;;>>=,;4;*r+00*q;2>O=;,w2,&*$&&+@&=551",
"01>@==>&::=&=-O=782-----><:0&-<O>000;o>*>X+X@:< OOO+o$80#=>>:>50&::&::+t31>=2$9;;%911;e1%-*,,>#%>@**ro0114;1;.11>82,-&===#+&=>7,",
"022O2-===*&&7<O&#O&>>---1&57o+5,O01:0@0;:O&$>O&@#OOO.O><&*>1$&>>=>>$=5:O4q2*9=w1-*1199e1+%#,9>%>r;;@r1*$;r*;;o;2:,5=$25$&@+&--0<",
"0t5X21;&=&&@<>X$<*&=---->&1o-O>-$0&01o1;:O=;<X@$OOOO&&,>>&&>-><5$>:$$&>$eue=1>119*9;;399@-#9-=%,>4$Oq;2;=4;4;*O1-=5=2-=5&O#=:&t>",
"y<2$><$==;<454.&::6=&OO&5:>&-1*O*;00;.*;=$;*0.O#@OXX$$==><&-&&25<>:&@&-:1s0<21*4*;91;%p9*;*9>%%-2@1@220$1q10>*O0275==;,2*X&=7<>7",
"y5$X=>&=O;>=<6O+=7>:>&&>-#:@-O@$@101;.*11o*>2#o#$@O.@$&===$&O->0&=:>@$=>5>r511;2;11-9*9=@*%9%@#%11=o0*;4*2@;;@@0572-=-,1&o=>&>2*",
"56<O&::&&<<=*;OO=6>>5;:2>-7>;o;;@101;.$11o&>>=oO:&O.O#$$>-=&@>>5@$==&&=>&>t>115>91199@e>%;=9%$@*0**+q0;@;r*>1@@$275-=:,1>O>,&>0#",
"0<6$&=:X=&&&0<O+=>6=>&=>*@<>;*y1*;10;.$1=$:&=>Xo<:@.XO#$-O&O>->:&&#OO&->&==6>1q=*;=31*e*=1%;>%%;=;**40;*;r+;;O*@272--:,1>&>52>t:",
"y0>o;7&O>:::2<$X=>$;<&@2O&&>1;11@*001@@=1$1;>&.O52#O@##@->$=$&2=>>&$+&.&--&iw=01;;>9119;;;;;=*-*;;*$44*20r;;;1@@;,,;;>242&&=#-2o",
"6>>O=>-&&O:&2>@O>6;22$$2@&->0*$0o110*o@01$;;6<#==:#&@$$@>-=&o-<2=5O-$@:+<>>tr0=>-;;;19;1=1*>%@*$;$;$1r22q0@$;=$@1441$*;;=&=<@>01",
"6=>@&:>=+@$=<:$@>6-12$@5@&=:@>O*o0;00@O=0o$002&:::XX#$$#-1O-&$w2@2@<&:<@&@&-0>54;9=911-*1*1=%@*$;$>@*w4;2;;1;1o$O44+$*->=$=2&560",
"0<&&&>1@@@::>:$$&>$:2@&1@&=;40@wo110;@@1;=1*0<+=@*O&#&$@:>**->5<$&><O0>&>&1&00&21;;1;e9*;=;;-%;=;;*$*;>;r>;0;;@@21>1,>152=$=>5&5",
"0<6#@-=&&O<=&6:@&2::=$$$$$:<6:$<*,1>=O@11**;11*==>>$=$#$&=O>&7=>=&=<>6><#O:-&8<<01>$2t=:6@:$&>>:1;,*,57,7<O<>>o*=02$$;1$=*1;=$>=",
"i>:$>-1<$&-;$0&@&2:=$$*:o$*:<>:>$>1,=o@11==111*;<<>&=&$$12#=&->&X;2<><=2&O>>&y0:<&<*0612<$>&@:<:1;>==:pw1&><1=@$$$040;;0*;4;1*22",
"0<<&&-&>OO<<>>&&*2;=:$#$$=>2y:#=+;42=+@11;;110;181:==&$#,6$&>-5=O&>5<&>>O&@O<70<>5:5t:$=O&<1&>>>,=>=*=u871&&2*@**12=;11;=;0;&>01",
"y>&=&:>&&-&;=5$==1;-&$$=+$=>0>$=.-04=+$1011400;1t2=:=*$$+>&&157<O<2&$4@--7*&&&r:><-:6<+6*>-&&;>:1=,*=>1=1=5=>1o*=2@0;;;;110;&$,5",
"t6<$<=1=>1&>*>@7#8::>&$&.:>=2>$<;;>2;@$;;**;;4;1>2=$*&$O$<>+->1-=&;=52-->1>@>-r6$5=t0:=&=>0$:;>:2<$=5-:->O&-&0o=@=;;;@;;1=;;>=,5",
"066$$$>O>>$517&&$<3;>=$=$O=<=>$$**;>;$*;;*;;;1;1=1>>=<= $,:+>25>$><&-$:&>>>&-2>p515i1-==>4>@>->=<>$:<=*$-*>>=;*&*>11>0;;;2*O&@,r",
"t8=&=&:>&2>522&O*><>>>+:.&6$<*O:@$;;;$*;2;;2;2=;<t$:2:$O$,:+:><:&22=$-@&&&&$.&>5t-05-&-:5=<@>=>&::$3$==>1:;*$1o@*11;@;=;1;*4>;>2",
"t:0#$:<:#&O1-&@&*<&3=<X:.$q#>1&>@*;;;@*;21>2;1;1227>&>:#$<:+*=:$>><><-=O>>>>=*->itw,>&&<>:>>:&;$=-$728=*-@24*$$O@=;=1=;;1;;@;22=",
"0<<O>:6<@&-8=+*o>>>>&:$=&<**$8$=$*;;1@*14;41q1;;5$=*:>*oo>*-&&2&&2>O=&&&@&>>$=>:wt->=>:0=:==&:-<>==>>-&-&>>0-;@O@1;;411;==;;*;00",
"07>@&+20;&><:=&@<1<1>&#>O1<$-=$1**;;2+*;>012e1;;7,w-&3>o$>&$,,1&*<>$0t$&&>*2&O:$>5&<o>>:=:=:@=<=2=.8$:,->>&2&<X$@1*111;**1@1*110",
"8>w&>&505><=$-.O>>>>>:$2X:3$=&$7$*;;2@=110;2w2;;>,4>$*$$&--+--%+o&<5>5@&&>+,<@<>->:>o><#:====X::=2$>-&=,->&>:=&+@*;4**;1;*;*;*00",
"y58O<=>@40:*&1.&****>2=,+$2:$>+8$%;;2+*;2;42w1;;-3:2$>>$+&,-&,=>-;=;>;&&&$@@>$&:1>>>&&<=====@X<$=:>=:>-*.>>:=>O@o$q1**$$;*;;;;;0",
"0:&$&@>7>1-:&1O>::::&:>=*@>1@9@4*$;;1@;92>2qq1;;11=2:21+&--*-6:2&>:2-&@2$--$:=>&>:$>>&<*>@&<O#=>=5#,#;:-$=>=:+O@*@1@;;;$;*1;1;11",
"8<8$&#><><>1*-#>:>>;22<=&#>2;;@4%@1;1$19112qe1;;;=w1&1<$X=::==-&&-$>4<&>&==&&=$<>+$+>=>&:$O=++=:=-7$,&$*+>=:>.&+$@;*;1*;;01@0*10",
"255&<>>=$:&>>*#&:::-$&=>&#>1;@$1*@;;;*192>1999;>q1-6&<<$X=-=>7@-1>&175&*&-=&*2=+&&o=:>-=&OX$O@=>&<2&2=+$&+6&:##-o$;;*0*;0*1@1;11",
">-8#$&>-:>&--O&2::--2-=>&#>2$+;**@;;=*9>2>29e2;>23191>:$O==O->@X<=o>;1$$$--&=@>:&$:2=1&=O+#O++::>=>---=#$$2=>X*&X*1=;;;**11;1;10",
"725$X->2::<*=*@;r;;*;=1;@$11=+;1;*;4;;*q199111;91919%;1*o1$;2;%->&$&0:<>&<+<@$:1$=6=&5&&.@&O@+>=&&0====@<&:$>.*&.@5@;;*@0$;@;*00",
"0-2=+:==&$=:>o$,q,=;;41;$;1*q$41;X;1q*q4919991991;11;1;%o=*=1%->7>+O5>:-&>=:&&=>>><$=2;&X&=&@#-=@:<:&=*&7>1--o&& O211;*@*$1110;1",
"8:2:+-&&2>=:@+;102;;4211$$*@=$;4=o1;q1q19114191;;e999>1@+=%>,-&,-&&-:1=$;$0+>-$&<>$=:><@o=>=+&&>&$0=&===5>2-$&@@@$$;;;*@O=;0;0;1",
">8,:o*&*$>==..*t22;;4r111$;21+;;;$;9001119;;999;;91111;;o1o;21O>1:++&5&#@2<$<:+=&:$0>=5@$-<;O:O<$:2:=&&=>*:$O>@#.O@4;1*O@;*4;@q0",
"2&8>#=&--*=$o.21q4*;;q1;;@*;;@=>1+91010191;91;01;;91911%O1%=9#&<6&==&5&X@1>@<1X::o:1012 =&2<*1O0:@05=&==->&:#$><@.;0;;;O@**;;1q;",
">-2-X:=&:*=$o;2;;eq212r1*@;11;=4>@11414;0;990100;9;1;31;@;@;3&>&-O=@&>=O$>>&&-1&=O>>$&@::&2<02.0$$00-==-@0.<#571;o;>;;$@@@*;;*0q",
":52:@2>;,=*+*;@4;01=*1q2=$12=431>@11911*1;;101119;1;;91;O>-%,%>&>$0=&====-;&>6&O$$1-<:XO-&5<r>O&5><:=&&-&<@>.5>>;.=,>*@@@@*;;@4q",
">r71&:->1=*O$4$1>;=1;4qq;=1;;;4:>@141;111;100001191*931@$==&,#&>$ot.+=:&=&&&5O>&@&5&5>5.-&2<&-& :<>>--&-&<#>+1$7@.>01$O$@@@;114;",
"r2<,$$:>$$OO;1,;2141e041;;*;=:&1=@19%-,294420;10;4;1*9;1+%*@9%&>-->>+@=>=&>=:<O=X6<==&:X::6t2><X>><>:-&&$&=&#<=&;.;41$+@$@@*1141",
"&277#=&:&.O*4>4;q4u4q2422$1;1o><*@>9;%=9q;>e1;;0;4;119*;@11*9X:2O>:8&:<>&-@:6-0&>w>==&>X=6002>>X:>:>:&$@><>>$2--4@@;;$+@@@@*;;00",
"22==*=&=o#X=$@00>04q11441*=;,+=2=>>>999>4;2a111;10;4;9;1o1*%<%%9<&1=>&>>>=O>&<=O&<@@=*>X>60<2<>X====<$O=>>>>&5,>$o*q*$+@@OO*;*w0",
"&5=&=&=&O.$:,70,;12q;14q;+1$:$>>*-=9,699>>11e111191;19;%+>@*-%2,&>>57oo-1X$<=6<+=>-5=&;X0<>62><X&&&&2OO-=&&==8121@O1=$+$*@o$0=w;",
",>:5&OO&.$::&24122q1;2q42;$;>$7>o-:9,9>&q=;1;0;;110;ee9;+*1*;=-+&->1>O$&>O&:>>7-$5&.>&-@&=56>>0O&;&:>+@&:2=$-,;50@=4@o***@O+@;1;",
"2-1*&OO$.&$>=,,;w1211>q21*;*qoq,X9:999,91=141410;0ue1;1;o9@>1%9%@&&>>-&O>@&;-:4&O<:&&o&.&=-&><<O@>&&-$&$>>:$=>>41@=1.@1@;oo@@;11",
"8>&=OOO#o=$=040t4q1;;1;21*>*q@4,+-9,9<:2411;10e1100119;*+=>*e*9O->15>5$.>>@:==1&>r-o2=>&;76>4>@-@:$:@&&@<OwX=>001$1;$.*;=OoO$;1;",
">:1&ooOo#&&$,>7i0;q2q410>1=*;2;;o->-=&e>=*;;0*e;;1190001o>;=9=9+&&-><0&O6>&$&&>+:0<&-@&o.<6:&t>OO&@2&=&$>>>+*>q0;=1=OO;$=@o@$;11",
"2@>:#oO $3<1>qu10q4>;2qw0*;1$=0;O$>4;144;;*24;q41qer1q22X*;1e@9%O&:>52$>>1$&=+<$&2;-@--$@>5<>5>@O&--7&&&:&>.7>500::=@-&&<&O#$<52",
"p&>&+.O.X--1>;re2q0;@1011@*;;4**+;12;241=4*;2w1114q;;1;;O;*;q=;$=->6i&*&&>$#:+:&&2-=$-:$@<4<>5>@@&-:&>>O1.>o<5208#*&o&**>**O*127",
"=<=$+o$+$=*1;;q$0>*22*=42@$*;0***141142;*;qO11w21q9111q1@;@$9%;@$O&2d-<:o1$$&*=&&2-=$-=$@<2<>4<@@&;;-@=&-&<.1>w50=:=.--=:--oO=-1",
"5<>:Oo&&2<$,,r215>;>0224q*1***4;*00>241;4*;2q;41;1*r21q;o*$*9o1O:@-07&-&&&0$&=&&&1=-&-=@&>62>6>@O&;-&o&=-:@#>8855>>#X<2>:->O$>:<",
"2o>:oO#>=-2w;0qe24440117r@@$1>;1$1q;241*;*=;r;;;;1qe;12;O$1=1O1@O1=62:><&&>>@=@&<>;&&:=+&<62>5>@-=0*2@O@&=>O25755:>$#>>>:>=o$&->",
":--=*X&@&>,:1e;4r1t42>r;w@@$01;=o;;4;21;==+1q*011qrq;2;;+@1;9+1@$-&i5<O<>&>>&=@=&-><=:=+&142>4<@-:>>1O@&1=&o&>17>=:##<,=-::O#*==",
":---$$X*145>041;1$4=2>r>0*o*111;$r2>>02$1O;40;w0114;42e1$@;>1+1@=<:0>0:&2&-:>=O>&-><=:=O=>62>5<@&>1=>O$=2>#O5w<805=O--5$&:=#o$-&",
"5o::OX$-,-;1;0;111110>100;.*$;10o1124w2.O..114>1110q;991$O=19+1@>:&s71:$7@&;>&@5<:-==:=O;>45:2>O@;0$;o@;=,&O=0>052$O=>*-&-:$O$=@",
"1X$>$#$+;;110111>44;0;*0y4@4$1;;@0r40,*$*oo0114;1q0e10q2o+=12@1%:5#0>88$5@&$>>&>--=--@-O->>:;4;O=>0;q;*11@@o<0671>&o&&=&*&->.@<-",
"2O&-Oo&011110;1040044;;42,O$$1@O$20;;4>*$+o1$r0=qqqe;22;@@;>9o;*<>:s6:i&>>O&&>>5-----&&+:>:>;11@&=1*$$@;0*@o<5<<61-@2>-;$:>*O&>&",
"2@&*+.o=;0100e1020q42>>1=1@o@414$0;11;1=o$O$4;414;1qq;20;o>>9$9+<&Xy5td<><@@&-5>;:--&-@$>:>:;01@;*;=0*@1;;$;t2>02:@@>&&&&>>&#.&4",
"2&&+@$*=;01u0100>44;1111;q;X*1*@;;r010>oo*+o=q4=14e4*12*9o>>9o;%@&i85=00>:>o==2*&->-->O@>>;>100*=;;1*;@011@;56:<7>$&$=-&>=&&OO>-",
"0$&&@O$=1q1;10qq;O411;>2,10.;*@@$0q;tr2.o;$+;01421q92q12-o9+1@*=>+06$40t>><=@&-&->:&>:#O>>>5>11$$;;0@;$*0;$@20<81:&@&:>>-&<$@&>>",
"&$$ #O@;;;;r1;04*011022000-X1;;*>242q;1O=;$.$41>2>e;4444@@>;1@;*<O00=<06t>$-->@@&>>&>-$O><25;0**@*0****;;*@*11>0<<O&->&$:@-=@$:>",
"2$&O@oO>;110;00rq;141=;10a0o*$@@1>102*;O2;$o=qq1qq9q4191*o1;3@**&<s<6=>2i>>&2$-$&>>=,-$o;5751;4@$0;41**;;1*000=<><O&>=O=-&=-@+=&",
"2$*OOoO1*110100;0r>141,41;2.1;*$;24240>.4*;@$qq;*;q;;12q;@@;3@=*:<a622&:2s>&>=&:&>>-<=#o*7w>;4;*@;4*4@;1;;o;12>05>&@&5--=::=@O&+",
"8-&O&o@2=&,010,4;q;1q*4;4q;+@01*1402;;0O;+;=$4eq1>u;99,9>$=;9+1%&>02*;=>1q0@;**1;;;;1*++2r4;;44*.;1===@0$=@$1202;>@&<&;@-2-<@@$+",
"5&@+<@o=*>;4>q1;24q;21;;q1;*$4;*120442;o$1=*@1qq-99999>9>o>=9%-%2001&2>@;>u1;*;;;;;;,*@@1;;;*44=o=0=;=$11+@;502>@&O:>&>&;<=>@@$@",
"<$@@>OO:1400571;;$qr1q*;;q4+@;$*144402$+>+=;O;92;91199-9;+>%3@1@&>5>;=4O$4er111>;;;;;$@==0$2*44*o;0=1**;4*=+10220>O>=@>=&>&>$#$@",
">$@@>#O->r10,04+*1q9q4;;41;*$*O*>24411+>$2*;o;42;=9999;1%@=$1==@704=$>*1;40r0@$*;;;;;$$;*qw4=42*o2011$=;;;&,074=<@.<&@<>&;@&$$$$",
">o$&>>o@112112;r;11;;14;414@+o.11444,;$*%;%4o=;9>$9199;r9+%@;;*;,wr;4;0;;1;;r1$;11@;;@O*14@0;44@;1;*4$O*1;**<<<,6+X=<O>&-O@6&$&$",
"&&O&<&++;114>4>w1qq1q1;;;14;.o+014;*;2o;%1*;*>;;1*99912q%+;*9@-*;w0;;q$0;=0;2a=;;=O1o$.22;11;;4+o;;4;*;1;=$$6>2-5+@=&2<2:@&<$$$$",
"&-.-<=.*0044r>0w1qq1;=1q1q;@=@=;>$0*1;*$*9;%>;;$9>991;99%+%3;;1@*w2*41;440==;a4q;;@1;@O$>21>111*+;>1;*$$***$855>>O:-=&;X>=&&&&&&",
"&+o<2&X*;t=rr;,;;11;121=;q;;++410w;;>1O**9>@;@;;>>991>14@@*1-;;-1a010*12q21;;2wp0;$4$$o>=w;>10@>@;114*$1*1;;50>8>O><-<@5>:=$&$&$",
"&&O->&.@1112q;;,12r9442444;@@*;1;19;;%+4*=1@;%;1441qq4144oo;1***$21;;;11>,;*22wrr1;;++O=4;1q211;$;=;1O@1=:::0<0w:.>-@:<52&===&.&",
"-@.><>o#*,;;4020*1;2;;11;11;*;;;1e291;@2=*1%;%;;2;1>q2;q;+@1>;4@@w2*;>>200411;04f;;;$;O0;41$42>;*;0;1*@2$22@w0<6&&=::>1:=6&&:=X&",
"-@X>O5o-12>4r>>>;4;q;;14q9;+;;;111*1e1@1;@;*;%;1111*21=q4*o;1;@o1r;1;;12111;1;1>>r;1+o+*1re=41>;O2**2;$,:<:$>2t<=O0$+&50>;1+>>O-",
"*&O-+-*X>q14141>;+;1;1qe11;=1;=4q;29e1@11@;;;@;110;=1>140*$;1*>;;i;;;;1112,=;;>;wq**$*+1*10141>;$1=13$$$><:@<80>@=<$:-:><;$=2>@>",
"&O--&-@*450>44w$=;1=;1q241;;=@1;1;;49;@%*1@1*$*104442q1q;2++1;=@0w=10>04;$=O;*;*;r;;;1@2*w4*110=$21;2OO$->=+<665=O:&@>::0&O$5;@$",
">@&&=&-@2r02q4w=;;;=1*1441>;;;9191;91;**;9@1*@$;4444;;;20++;;*;*0w11=0=>414111**;0+=;;+1*e1;042@$1$1>O+#$5&O:<<:>$>:@6=<&2>X5=@$",
">O&==$>O;1r0q10;=;;*=;9;41;;;;q2q12q1*%;1;11=$$;12202$=r2;o12;=+;0,>1441;1;1>2;>>r11*=o;1;0;;>0>$1$,:$=*:>&#:<>:+ $+=<7<:=&&6=@$",
"-o&>*=>O>1=40$1*;;1==+;1411;=$;;q49q;**1*;*;*%@;>;4021*411o4>=;$>g2r1*;;;1>4;;02Ou2o$=o=1;4;424$+;-=:*:=:=<X:<>>$.&$=0<8=&=:5=@$",
"=O&->&1@=1<50<t>&>21*141wq$;;210=q$1q@;=1o1==*@;1;2;2111w1o;1;;*;a0q0;=;1$*>;;;4=0=*1;+;19*q9q9>@$&>>O&:>=&&-&:2@O<&>5<>$1>&:&@@",
"-o#@-&-O-1555>>>,;=;;0;;r1;$=22wq4=e4=*11@>;;*+=1;4;1111q,o;2>;*=r**;*@*;==11;*1;4;*2*o11*ee;99o$=:>>12>:>&$=&:1=o->&-025>@->@@$",
"&O-1>>>=O-26>72-;$=>$*4>41;2*20rq;=q1**4;$=;;=+=1;21;;4q4;.*;1;;.q;0q1;1=;;;;;=1>11$1;o;;>1e>>=@$>5:1O<-&>>O&->>=@:&>7>><<->$<++",
"@.&-=--$#-&&->>$;>=O$;;;0*>>*4quqqqq1o14;=*1;=+*1=4;;;1q2=.$;1>;;r;11**=*11*1*;>1;2@*2=$;=$>;99+$40>=i>2&>>X@>>>>o&=5<<=05&==>++",
":+@@===>X$:5-57-;$1@=;;4411*;0202;eq>@=;4;;41;@o;*21*;141=.>*;;;$u224*$*=$+*$*;11q2@;1@o*=>1*>9X&$72><&8@>>:O$>>>@>-:1:==>>&>:++",
"$@O>&=&>$O=>561=;*1@O140>r41*u101=q14*11;*$;4;$+;;11*;12;*o>;;;;201;0@;;@Or;;>14;;e$1=o@;;;;-99o=>:<:>>5@:<;O$-<-@:-&5:+@6>=:>+O",
"$.&>*=&<>O<t>1-&;;;@*41;0qq$2044q9e9;o===@+*4;;+*1;2*;1q1=o1;;;;12;*;$;1;@a4;;14;;e*4$@O+=14-,9X0=<o->5,@:>:O$-<&o:-&0>=$<=<=<$X",
"$+O--&&<<$#0>0->*>*$*=1012,>;r24q14q1*>>;$$;11;@*1;2*;;0;=o1;;;;.e==@1Oqr=e0$*;>1q1+;=;X=;;;+%*.>:>:=:0-$:>:@$><OX:>&7$=@>2:&<&X",
"&O@=:=:X:=&668t>1>;*==q2,2q1*20;1;993.@1***$9%%.;1;;+=>q;=o11;*2;w;21==120u8*&o;414+w**o@1-1>19X<+:># g&&:<6@$<1&.&:&<X:@:2:<<$ ",
"O+O<=&:-;>O>=<65q;;o+;>14,41;14>>1193O*2=*$+++@%;;;;o;;q1=o1;1*2;w>1=*1q=>00,=@;2;4*1*;.@@1>=19X>&<==:t&====$@51*@<:&>&>O&<&<=@@",
"&$X=$=&;->&050<t1*1**;r;4>1*2144>9191+;>=%%%>>&&;;;;o=;q1;o11;*2;421**>qi0020>==;;4;>;1o++1;*>1X5O=<:<66=&=&&@52&@<:11;@@@2&@5$@",
"$O$:@>=&:=&<p0174;=*o1q;112O41401;99;+****%%%@2X;1;=+;;q1;o111$2;44;1=;1r>44w14=1;4;4$;;o$%>;19o>&>::>0t&;56&$<1&.=><12@$$0=<&=O",
"=&&2$&&=--=<:>6t;*;+$44;*12$;2411;19;@O;12@@2:>o=11$+;;11=o@>*@;;;$;;.2r00O020**w>0@@;;>o+-111-+5--o>1<0-=:=@.5<&o*>><>@&=>>;;@O",
"=O-<&&-:>@=&-<=0q;;*$12;;;2;;24291;19@>;2*;@:><.*;;$+;;1;;o*;*@;;w41*$;r001s44*=2;q;14;;++%,11-+1&>O$r0y>O2&:$0<@O>>>5<&;&:&<>$@",
"&X=:&;-;-=+==2=>1*;*$;221;2>20w011;1*$X=1@*;9&-#*;;;@;;1;;+;***=1>$4;oq2210fe4$*w10o14;;=o+,11;+>*>&#<&y--&:&o<$&.>=>51&@@::<>$$",
"$+$<&@&>-&:>&<2<>;02@;204>22=12111111@;;;%O2,>,.**;1**$1==@1$$*;4e2q;;214*1rwe*$4;q$+;=11oo111;+:&>--y-r>@1=1$2&1.:$><>@&$=&;:+O",
":+&:$&:*&>>X2=q31=11*;4121;;=1;9%=999X22>-->9>=.$>>6*:<>>:o$><==;s>4<$=6635qi>+#1%9%%9%*1@%@;1=-=2>=:t=85@=&#O<$=+=>+12@@->&>&++",
"<*+1$$>-<:&X>3=<4==*$101q111*9*99;999@2=,-$->%,X$=><>3>$7$O$>2$=$0w08==:3>i<q8:#9>>;;1%1-%%*@-@@*8=:>r>8>@>1<X>>2O&=&55-&+5&&$+-",
">$$<=o:<<-*.:>36q;;$@1q11;;;;2*19$--9X->>-#%9#=X$2=<>::>&=$=8::+$>t01o8<8>>y00=>1;9%*91%*%@-@%+@&2<:,025<&57-=w:5X:&@::&&&&>@&o-",
"$>#=>$&1*:>X:>=>q111@>q1q11;=;999-99-X,-%-#-%>>o$====>1:<O&*>=>=&323><>8q*qt<i>>%93%***%>-+@%-+@>$0&<6820;<><+0>$O0@->>>>o>>->.&",
":>$*#6>3$5=$=2>50;;**;q19;11@1199--99O&%%,#-,=<#$3&:$==*&#$$7:=&o=6<7-0t><0r8y#:->9%%;%%@=@+%*+%:=5$0<<2w$=>&O<>6+&-&&<&-@&&-&o>",
">2O2=:=>$1=&:<t214;1114;14;;=e=99*9y,#%%2#2#e%9##:=*:3:>$#$$>-1*=>2=8*=5:6t52>2=9%9%-%--%-@+%*@*=:1&t0&<6+$:O=&55O&:>10>>#5&-&O>",
">=$2O=6>=:=&1776=1=1;;2499>;*1119#99>X<%32>->==#o2#=:>=$@$&&,=3&&8&2>3Os8,5868#O1*9%%-9%-;*@+%@;&2>=t:5:0$=>O=&5<o=>$-5-#-<>-&O>",
"$:#<:=7>=-=*o5w61;1;4;1>911@%;499%9,-#>&>%,=,3=#$<-:>*>O$&&&8$>$$=05w*$t570,:2#$93191%9%-;*%+@+;&2=:><<8i>26$O1<>o:<O&1>@&0>-&O>",
"0>oq*:=<=$=3Ou311;21;22491;Oo;qe5,$02O5<4>=;>=2o$6*$:<&$#+&$<>6;<>t%>&%9238,:1-;9111%%9>**;@OOO0=<-:io8=5=&=&&:>=o&<@&76O-:&-@:>",
"6:O6*2<11>=<:tw14;*11;;299;*O*92><=16O5:5*@;;*;O$<$#=>*#O$o&-=:<&93<2>#,wtw=8,&%919>*19*1;1OoO$4->>:-*>-0>>-&$><5&-w=>->O.65-.:0",
"8*+:&:>w3:>=O2q62;@>;;2129%O@,99>2<>>$:,*2o>;<1O+=+O*=+o#O+=<:*:&,t><<%&ur*we-&&;139*9*;**1=o@>1=>::tq>=2tO8-$>1>@o>:$>&=:y+&o:8",
"8*$&*>=::::=$888;*;;;1r;92;OX&e972585#=$>2O0;$1o**#+#&O.+$.:-3>1.%9&&>:,8=629-&,->19%1*9$@*@O@1>-<:;6$=2&5>2&&->$>o@&&====0O2.O7",
"8-X-&2<>=>=:$$47;;@;=11214-+X,33:81>5O:>;>=>;*=O$2Oo=$$&>+$>>,&:#&93:-%&-,992-&>-11e;;*9@;;;O;=1=5==2#=>>0>=<#&5>-.:$<>2O2>*> #2",
"78=<-w3*<:>=o,714;$1;14;,7;OO2w6>&>-<#&>-&;=***.#>$#*#&==+O=&,=<&&7&9<>->=,,>&--->1e***1;;1;@,=o=2$$t:35<0::-=:>&-X>>&+-:>:>>.=t",
"=8:$*6:X1>,>*>212;$1@;;441&*+&wt5<0<>O$>O>0w*1=O--O.$+&-=#O$=,&<==6%9,<-&9O>-->-19@f;%;;;%$*5,=*$>#+t=-=65&>1O@0<5oO:=:$-25#2O&2",
"1>$1=3:$=1>6#$4q>;$;*;1;23*$$=725&<<:#O>>0>*@1*.&@+O++&>,=%%:,%:%&9<,,:#=9#%->>-;1991%;;1;*;;*>$#>OOs23<61&1>&-<><OO>$<1>>>>&.=<"
};
